<svg xmlns="http://www.w3.org/2000/svg" xmlns:xlink="http://www.w3.org/1999/xlink" viewBox="0 0 750 500"><defs><style>.cls-1,.cls-14,.cls-19{fill:none;}.cls-2{isolation:isolate;}.cls-14,.cls-19,.cls-3{stroke-miterlimit:10;}.cls-3{fill:url(#radial-gradient);stroke:url(#radial-gradient-2);}.cls-4{clip-path:url(#clip-path);}.cls-5{fill:url(#radial-gradient-3);}.cls-6{fill:url(#radial-gradient-4);}.cls-7{fill:url(#radial-gradient-5);}.cls-10,.cls-11,.cls-12,.cls-21,.cls-24,.cls-8,.cls-9{opacity:0.66;}.cls-8{fill:url(#radial-gradient-6);}.cls-9{fill:url(#radial-gradient-7);}.cls-10{fill:url(#radial-gradient-8);}.cls-11{fill:url(#radial-gradient-9);}.cls-12{fill:url(#radial-gradient-10);}.cls-13,.cls-15,.cls-17,.cls-18{mix-blend-mode:screen;}.cls-13{fill:url(#radial-gradient-11);}.cls-14,.cls-19{stroke:#ffb2b8;}.cls-14{opacity:0.35;}.cls-15{fill:url(#radial-gradient-12);}.cls-16{fill:url(#radial-gradient-13);}.cls-17{fill:url(#radial-gradient-14);}.cls-18{fill:url(#radial-gradient-15);}.cls-19{stroke-width:2px;}.cls-20,.cls-22{fill:#ffb2b8;}.cls-20,.cls-23{opacity:0.5;}.cls-21{fill:url(#radial-gradient-16);}.cls-24{fill:url(#radial-gradient-17);}</style><radialGradient id="radial-gradient" cx="330.98" cy="-697.02" r="904.08" gradientUnits="userSpaceOnUse"><stop offset="0.15" stop-color="#e11948"/><stop offset="1" stop-color="#85004b"/></radialGradient><radialGradient id="radial-gradient-2" cx="375" cy="250" r="319.18" gradientUnits="userSpaceOnUse"><stop offset="0.15" stop-color="#e11948"/><stop offset="1" stop-color="#470026"/></radialGradient><clipPath id="clip-path"><rect class="cls-1" width="750" height="500"/></clipPath><radialGradient id="radial-gradient-3" cx="698.09" cy="-716.59" r="1094.22" gradientUnits="userSpaceOnUse"><stop offset="0" stop-color="#f77e7d"/><stop offset="0.51" stop-color="#e11948"/><stop offset="1" stop-color="#92004b"/></radialGradient><radialGradient id="radial-gradient-4" cx="-210.19" cy="74.77" r="664.65" xlink:href="#radial-gradient"/><radialGradient id="radial-gradient-5" cx="-372.75" cy="578.57" r="751.33" xlink:href="#radial-gradient-3"/><radialGradient id="radial-gradient-6" cx="72.85" cy="68.34" r="382.99" xlink:href="#radial-gradient"/><radialGradient id="radial-gradient-7" cx="330.35" cy="74.77" r="526.22" xlink:href="#radial-gradient"/><radialGradient id="radial-gradient-8" cx="57.08" cy="-64.6" r="190.42" gradientUnits="userSpaceOnUse"><stop offset="0.15" stop-color="#e11948"/><stop offset="1" stop-color="#85004b" stop-opacity="0.52"/></radialGradient><radialGradient id="radial-gradient-9" cx="163.05" cy="213.55" r="179.79" xlink:href="#radial-gradient"/><radialGradient id="radial-gradient-10" cx="137.64" cy="74.77" r="656.66" xlink:href="#radial-gradient-8"/><radialGradient id="radial-gradient-11" cx="12479.55" cy="-1531.18" r="32.2" gradientTransform="matrix(-0.13, -0.02, 0.06, -0.38, 1969.5, 141.49)" gradientUnits="userSpaceOnUse"><stop offset="0" stop-color="#fff"/><stop offset="0.06" stop-color="#d9d9d9"/><stop offset="0.16" stop-color="#a7a7a7"/><stop offset="0.26" stop-color="#7a7a7a"/><stop offset="0.37" stop-color="#555"/><stop offset="0.47" stop-color="#363636"/><stop offset="0.59" stop-color="#1e1e1e"/><stop offset="0.71" stop-color="#0d0d0d"/><stop offset="0.84" stop-color="#030303"/><stop offset="1"/></radialGradient><radialGradient id="radial-gradient-12" cx="12400.6" cy="1937.28" r="37.53" gradientTransform="matrix(-0.04, 0.12, -0.36, -0.12, 1283.05, -1022.96)" xlink:href="#radial-gradient-11"/><radialGradient id="radial-gradient-13" cx="627.7" cy="-145.68" r="275.83" xlink:href="#radial-gradient-8"/><radialGradient id="radial-gradient-14" cx="3582.8" cy="393.43" r="32.2" gradientTransform="matrix(0, 0.13, -0.38, 0, 613.25, -433.15)" xlink:href="#radial-gradient-11"/><radialGradient id="radial-gradient-15" cx="5318.71" cy="-710.81" r="37.53" gradientTransform="matrix(0.04, -0.12, 0.36, 0.12, 715.26, 970.82)" xlink:href="#radial-gradient-11"/><radialGradient id="radial-gradient-16" cx="632.25" cy="220.98" r="398.44" xlink:href="#radial-gradient-8"/><radialGradient id="radial-gradient-17" cx="316.16" cy="129.68" r="371.94" xlink:href="#radial-gradient-8"/></defs><title>wddwdMesa de trabajo 1</title><g class="cls-2"><g id="OBJECTS"><rect class="cls-3" width="750" height="500"/><g class="cls-4"><path class="cls-5" d="M568.32,202.12c115.58,77.35,175,181,99.88,297.88H750V0H506.28C487.91,49.09,473.43,138.61,568.32,202.12Z"/><path class="cls-6" d="M0,0V500H394.28c50.14-96.79-7.22-189.65-81.44-293.23C248.12,116.44,306.45,36.3,342.14,0Z"/><path class="cls-7" d="M184.29,295.27C68.72,217.92,9.31,114.3,84.42-2.61H2.62v500H246.34C264.71,448.31,279.18,358.78,184.29,295.27Z"/><path class="cls-8" d="M312.84,0H0V500H125.73c45.7-36.34,74.56-96.51,53-195.85C133.53,95.48,252.48,22.92,312.84,0Z"/><path class="cls-9" d="M537,277c-59.67,85.76-68.84,165.47-64.11,223H750V0H624.33C642.18,50.77,628.9,144.92,537,277Z"/><path class="cls-10" d="M144.7,0H0V182.89C99.13,126.09,133.12,49.06,144.7,0Z"/><path class="cls-11" d="M99.18,317.79c-22-14.46-58.69-13.2-99.18-13V500H87.3C121.62,444.34,160,357.85,99.18,317.79Z"/><path class="cls-12" d="M750,500V0H355.38c-21.71,73.54-35.93,233.85,195.39,344C663,397.4,690.3,452.06,679.54,500Z"/><path class="cls-13" d="M275,457.2c1.11-6.74,3.85-11.89,6.13-11.52s3.21,6.14,2.1,12.87-3.85,11.9-6.12,11.52S273.84,463.93,275,457.2Z"/><path class="cls-14" d="M256.86,529.64s65.66-133.82-13.81-200.22c-98.51-82.3-297.48-37.88-288.78-223.19"/><path class="cls-15" d="M60.76,262.51c-7.53-2.56-12.93-6.7-12.07-9.24s7.67-2.53,15.2,0S76.82,260,76,262.55,68.29,265.07,60.76,262.51Z"/><path class="cls-16" d="M750,0H373c1.06,52.5,23.26,148,176,119.61C644.76,101.85,708.77,109,750,121.93Z"/><ellipse class="cls-17" cx="462.15" cy="30.92" rx="12.36" ry="4.17" transform="translate(356.49 481.89) rotate(-80.64)"/><path class="cls-14" d="M484.36-40.84S418.69,93,498.16,159.38c98.51,82.3,297.48,37.88,288.79,223.19"/><path class="cls-18" d="M680.45,226.29c7.53,2.56,12.94,6.7,12.07,9.24s-7.67,2.52-15.2,0-12.93-6.7-12.06-9.24S672.93,223.73,680.45,226.29Z"/><polyline class="cls-19" points="678.57 314.41 673.11 309.8 667.65 314.41 662.18 309.8 656.72 314.41 651.26 309.8 645.8 314.41 640.34 309.8 634.87 314.41 629.4 309.8 623.93 314.41"/><polyline class="cls-19" points="233.91 59.63 228.44 55.03 222.99 59.63 217.52 55.03 212.06 59.63 206.6 55.03 201.14 59.63 195.68 55.03 190.21 59.63 184.74 55.03 179.27 59.63"/><circle class="cls-19" cx="72.35" cy="440.96" r="6.49"/><path class="cls-19" d="M708.12,66.51A6.49,6.49,0,1,1,701.63,60,6.49,6.49,0,0,1,708.12,66.51Z"/><path class="cls-20" d="M80.93,151a2,2,0,1,0,2,2A2,2,0,0,0,80.93,151Zm21.33,0a2,2,0,1,0,2,2A2,2,0,0,0,102.26,151Zm-42.65,0a2,2,0,1,0,2,2A2,2,0,0,0,59.61,151Zm85.3,0a2,2,0,1,0,2,2A2,2,0,0,0,144.91,151Zm-21.33,0a2,2,0,1,0,2,2A2,2,0,0,0,123.58,151Z"/><path class="cls-20" d="M525.73,439a2,2,0,1,0,2,2A2,2,0,0,0,525.73,439Zm21.33,0a2,2,0,1,0,2,2A2,2,0,0,0,547.06,439Zm-42.65,0a2,2,0,1,0,2,2A2,2,0,0,0,504.41,439Zm85.3,0a2,2,0,1,0,2,2A2,2,0,0,0,589.71,439Zm-21.33,0a2,2,0,1,0,2,2A2,2,0,0,0,568.38,439Z"/><path class="cls-14" d="M670.14-16.94s-45.75,70.1,17.05,79.17,7.58,96.25,86.21,90.56"/><path class="cls-14" d="M141.69,515.12S67.23,509.76,70.94,405.4c1.41-39.47-32.69-74.52-84-49.92"/><path class="cls-21" d="M750,434.35C698.09,413.64,600.23,384.92,573.09,449c-8.08,19.07-3.44,36.1,8.82,51H750Z"/><path class="cls-22" d="M37.28,36.54a1.22,1.22,0,0,0,0,2.43,1.22,1.22,0,1,0,0-2.43Z"/><path class="cls-22" d="M44.05,36.54a1.22,1.22,0,0,0,0,2.43,1.22,1.22,0,1,0,0-2.43Z"/><path class="cls-22" d="M50.82,36.54a1.22,1.22,0,0,0,0,2.43,1.22,1.22,0,1,0,0-2.43Z"/><path class="cls-22" d="M57.59,36.54a1.22,1.22,0,0,0,0,2.43,1.22,1.22,0,1,0,0-2.43Z"/><path class="cls-22" d="M64.36,36.54a1.22,1.22,0,0,0,0,2.43,1.22,1.22,0,1,0,0-2.43Z"/><path class="cls-22" d="M71.13,39a1.22,1.22,0,1,0-1.21-1.22A1.22,1.22,0,0,0,71.13,39Z"/><path class="cls-22" d="M37.28,45.72a1.22,1.22,0,0,0,0,2.43,1.22,1.22,0,1,0,0-2.43Z"/><path class="cls-22" d="M44.05,45.72a1.22,1.22,0,0,0,0,2.43,1.22,1.22,0,1,0,0-2.43Z"/><path class="cls-22" d="M50.82,45.72a1.22,1.22,0,0,0,0,2.43,1.22,1.22,0,1,0,0-2.43Z"/><path class="cls-22" d="M57.59,45.72a1.22,1.22,0,0,0,0,2.43,1.22,1.22,0,1,0,0-2.43Z"/><path class="cls-22" d="M64.36,45.72a1.22,1.22,0,0,0,0,2.43,1.22,1.22,0,1,0,0-2.43Z"/><path class="cls-22" d="M71.13,45.72a1.22,1.22,0,1,0,1.22,1.21A1.21,1.21,0,0,0,71.13,45.72Z"/><path class="cls-22" d="M37.28,54.9a1.22,1.22,0,1,0,1.22,1.21A1.21,1.21,0,0,0,37.28,54.9Z"/><path class="cls-22" d="M44.05,54.9a1.22,1.22,0,1,0,1.22,1.21A1.21,1.21,0,0,0,44.05,54.9Z"/><path class="cls-22" d="M50.82,54.9A1.22,1.22,0,1,0,52,56.11,1.21,1.21,0,0,0,50.82,54.9Z"/><path class="cls-22" d="M57.59,54.9a1.22,1.22,0,1,0,1.22,1.21A1.21,1.21,0,0,0,57.59,54.9Z"/><path class="cls-22" d="M64.36,54.9a1.22,1.22,0,1,0,1.22,1.21A1.21,1.21,0,0,0,64.36,54.9Z"/><path class="cls-22" d="M71.13,54.9a1.22,1.22,0,1,0,1.22,1.21A1.21,1.21,0,0,0,71.13,54.9Z"/><path class="cls-22" d="M37.28,64.08A1.22,1.22,0,1,0,38.5,65.3,1.22,1.22,0,0,0,37.28,64.08Z"/><path class="cls-22" d="M44.05,64.08a1.22,1.22,0,1,0,1.22,1.22A1.22,1.22,0,0,0,44.05,64.08Z"/><path class="cls-22" d="M50.82,64.08A1.22,1.22,0,1,0,52,65.3,1.22,1.22,0,0,0,50.82,64.08Z"/><path class="cls-22" d="M57.59,64.08a1.22,1.22,0,1,0,1.22,1.22A1.22,1.22,0,0,0,57.59,64.08Z"/><path class="cls-22" d="M64.36,64.08a1.22,1.22,0,1,0,1.22,1.22A1.22,1.22,0,0,0,64.36,64.08Z"/><path class="cls-22" d="M71.13,64.08a1.22,1.22,0,1,0,1.22,1.22A1.22,1.22,0,0,0,71.13,64.08Z"/><path class="cls-22" d="M37.28,73.26a1.22,1.22,0,1,0,1.22,1.22A1.22,1.22,0,0,0,37.28,73.26Z"/><path class="cls-22" d="M44.05,73.26a1.22,1.22,0,1,0,1.22,1.22A1.22,1.22,0,0,0,44.05,73.26Z"/><circle class="cls-22" cx="50.82" cy="74.48" r="1.22"/><path class="cls-22" d="M57.59,73.26a1.22,1.22,0,1,0,1.22,1.22A1.22,1.22,0,0,0,57.59,73.26Z"/><path class="cls-22" d="M64.36,73.26a1.22,1.22,0,1,0,1.22,1.22A1.22,1.22,0,0,0,64.36,73.26Z"/><circle class="cls-22" cx="71.13" cy="74.48" r="1.22" transform="translate(-5.4 143.39) rotate(-88.32)"/><path class="cls-22" d="M37.28,82.45a1.22,1.22,0,0,0,0,2.43,1.22,1.22,0,1,0,0-2.43Z"/><path class="cls-22" d="M44.05,82.45a1.22,1.22,0,0,0,0,2.43,1.22,1.22,0,1,0,0-2.43Z"/><circle class="cls-22" cx="50.82" cy="83.66" r="1.22"/><path class="cls-22" d="M57.59,82.45a1.22,1.22,0,0,0,0,2.43,1.22,1.22,0,1,0,0-2.43Z"/><path class="cls-22" d="M64.36,82.45a1.22,1.22,0,0,0,0,2.43,1.22,1.22,0,1,0,0-2.43Z"/><circle class="cls-22" cx="71.13" cy="83.66" r="1.22" transform="translate(-14.58 152.31) rotate(-88.32)"/><path class="cls-22" d="M37.28,91.63a1.22,1.22,0,0,0,0,2.43,1.22,1.22,0,1,0,0-2.43Z"/><path class="cls-22" d="M44.05,91.63a1.22,1.22,0,0,0,0,2.43,1.22,1.22,0,1,0,0-2.43Z"/><path class="cls-22" d="M50.82,91.63a1.22,1.22,0,0,0,0,2.43,1.22,1.22,0,1,0,0-2.43Z"/><path class="cls-22" d="M57.59,91.63a1.22,1.22,0,0,0,0,2.43,1.22,1.22,0,1,0,0-2.43Z"/><path class="cls-22" d="M64.36,91.63a1.22,1.22,0,0,0,0,2.43,1.22,1.22,0,1,0,0-2.43Z"/><path class="cls-22" d="M71.13,91.63a1.22,1.22,0,1,0,1.22,1.21A1.21,1.21,0,0,0,71.13,91.63Z"/><path class="cls-22" d="M37.28,100.81A1.22,1.22,0,1,0,38.5,102,1.21,1.21,0,0,0,37.28,100.81Z"/><path class="cls-22" d="M44.05,100.81A1.22,1.22,0,1,0,45.27,102,1.21,1.21,0,0,0,44.05,100.81Z"/><path class="cls-22" d="M50.82,100.81A1.22,1.22,0,1,0,52,102,1.21,1.21,0,0,0,50.82,100.81Z"/><path class="cls-22" d="M57.59,100.81A1.22,1.22,0,1,0,58.81,102,1.21,1.21,0,0,0,57.59,100.81Z"/><path class="cls-22" d="M64.36,100.81A1.22,1.22,0,1,0,65.58,102,1.21,1.21,0,0,0,64.36,100.81Z"/><path class="cls-22" d="M71.13,100.81A1.22,1.22,0,1,0,72.35,102,1.21,1.21,0,0,0,71.13,100.81Z"/><g class="cls-23"><path class="cls-22" d="M680.1,397.86a1.22,1.22,0,1,0,1.22,1.21A1.21,1.21,0,0,0,680.1,397.86Z"/><path class="cls-22" d="M686.87,397.86a1.22,1.22,0,1,0,1.22,1.21A1.21,1.21,0,0,0,686.87,397.86Z"/><path class="cls-22" d="M693.64,397.86a1.22,1.22,0,1,0,1.22,1.21A1.21,1.21,0,0,0,693.64,397.86Z"/><circle class="cls-22" cx="700.41" cy="399.07" r="1.22"/><circle class="cls-22" cx="707.18" cy="399.07" r="1.22"/><path class="cls-22" d="M714,400.29a1.22,1.22,0,1,0-1.21-1.22A1.22,1.22,0,0,0,714,400.29Z"/><path class="cls-22" d="M680.1,407a1.22,1.22,0,1,0,1.22,1.21A1.21,1.21,0,0,0,680.1,407Z"/><path class="cls-22" d="M686.87,407a1.22,1.22,0,1,0,1.22,1.21A1.21,1.21,0,0,0,686.87,407Z"/><path class="cls-22" d="M693.64,407a1.22,1.22,0,1,0,1.22,1.21A1.21,1.21,0,0,0,693.64,407Z"/><circle class="cls-22" cx="700.41" cy="408.25" r="1.22"/><circle class="cls-22" cx="707.18" cy="408.25" r="1.22"/><path class="cls-22" d="M714,407a1.22,1.22,0,1,0,1.22,1.21A1.21,1.21,0,0,0,714,407Z"/><path class="cls-22" d="M680.1,416.22a1.22,1.22,0,1,0,1.22,1.22A1.21,1.21,0,0,0,680.1,416.22Z"/><path class="cls-22" d="M686.87,416.22a1.22,1.22,0,1,0,1.22,1.22A1.21,1.21,0,0,0,686.87,416.22Z"/><path class="cls-22" d="M693.64,416.22a1.22,1.22,0,1,0,1.22,1.22A1.21,1.21,0,0,0,693.64,416.22Z"/><path class="cls-22" d="M700.41,416.22a1.22,1.22,0,1,0,1.22,1.22A1.21,1.21,0,0,0,700.41,416.22Z"/><path class="cls-22" d="M707.18,416.22a1.22,1.22,0,1,0,1.22,1.22A1.21,1.21,0,0,0,707.18,416.22Z"/><path class="cls-22" d="M714,416.22a1.22,1.22,0,1,0,1.22,1.22A1.21,1.21,0,0,0,714,416.22Z"/><path class="cls-22" d="M680.1,425.4a1.22,1.22,0,1,0,1.22,1.22A1.22,1.22,0,0,0,680.1,425.4Z"/><path class="cls-22" d="M686.87,425.4a1.22,1.22,0,1,0,1.22,1.22A1.22,1.22,0,0,0,686.87,425.4Z"/><path class="cls-22" d="M693.64,425.4a1.22,1.22,0,1,0,1.22,1.22A1.22,1.22,0,0,0,693.64,425.4Z"/><path class="cls-22" d="M700.41,425.4a1.22,1.22,0,1,0,1.22,1.22A1.22,1.22,0,0,0,700.41,425.4Z"/><path class="cls-22" d="M707.18,425.4a1.22,1.22,0,1,0,1.22,1.22A1.22,1.22,0,0,0,707.18,425.4Z"/><path class="cls-22" d="M714,425.4a1.22,1.22,0,1,0,1.22,1.22A1.22,1.22,0,0,0,714,425.4Z"/><path class="cls-22" d="M680.1,434.58a1.22,1.22,0,1,0,1.22,1.22A1.22,1.22,0,0,0,680.1,434.58Z"/><path class="cls-22" d="M686.87,434.58a1.22,1.22,0,1,0,1.22,1.22A1.22,1.22,0,0,0,686.87,434.58Z"/><path class="cls-22" d="M693.64,434.58a1.22,1.22,0,1,0,1.22,1.22A1.22,1.22,0,0,0,693.64,434.58Z"/><path class="cls-22" d="M700.41,434.58a1.22,1.22,0,1,0,1.22,1.22A1.22,1.22,0,0,0,700.41,434.58Z"/><path class="cls-22" d="M707.18,434.58a1.22,1.22,0,1,0,1.22,1.22A1.22,1.22,0,0,0,707.18,434.58Z"/><path class="cls-22" d="M714,434.58a1.22,1.22,0,1,0,1.22,1.22A1.22,1.22,0,0,0,714,434.58Z"/><path class="cls-22" d="M680.1,443.77a1.22,1.22,0,1,0,1.22,1.21A1.21,1.21,0,0,0,680.1,443.77Z"/><path class="cls-22" d="M686.87,443.77a1.22,1.22,0,1,0,1.22,1.21A1.21,1.21,0,0,0,686.87,443.77Z"/><path class="cls-22" d="M693.64,443.77a1.22,1.22,0,1,0,1.22,1.21A1.21,1.21,0,0,0,693.64,443.77Z"/><path class="cls-22" d="M700.41,443.77a1.22,1.22,0,1,0,1.22,1.21A1.21,1.21,0,0,0,700.41,443.77Z"/><path class="cls-22" d="M707.18,443.77A1.22,1.22,0,1,0,708.4,445,1.21,1.21,0,0,0,707.18,443.77Z"/><path class="cls-22" d="M714,443.77a1.22,1.22,0,1,0,1.22,1.21A1.21,1.21,0,0,0,714,443.77Z"/><path class="cls-22" d="M680.1,453a1.22,1.22,0,1,0,1.22,1.21A1.21,1.21,0,0,0,680.1,453Z"/><path class="cls-22" d="M686.87,453a1.22,1.22,0,1,0,1.22,1.21A1.21,1.21,0,0,0,686.87,453Z"/><path class="cls-22" d="M693.64,453a1.22,1.22,0,1,0,1.22,1.21A1.21,1.21,0,0,0,693.64,453Z"/><circle class="cls-22" cx="700.41" cy="454.16" r="1.22"/><circle class="cls-22" cx="707.18" cy="454.16" r="1.22"/><path class="cls-22" d="M714,453a1.22,1.22,0,1,0,1.22,1.21A1.21,1.21,0,0,0,714,453Z"/><path class="cls-22" d="M680.1,462.13a1.22,1.22,0,1,0,1.22,1.22A1.21,1.21,0,0,0,680.1,462.13Z"/><path class="cls-22" d="M686.87,462.13a1.22,1.22,0,1,0,1.22,1.22A1.21,1.21,0,0,0,686.87,462.13Z"/><path class="cls-22" d="M693.64,462.13a1.22,1.22,0,1,0,1.22,1.22A1.21,1.21,0,0,0,693.64,462.13Z"/><path class="cls-22" d="M700.41,462.13a1.22,1.22,0,1,0,1.22,1.22A1.21,1.21,0,0,0,700.41,462.13Z"/><path class="cls-22" d="M707.18,462.13a1.22,1.22,0,1,0,1.22,1.22A1.21,1.21,0,0,0,707.18,462.13Z"/><path class="cls-22" d="M714,462.13a1.22,1.22,0,1,0,1.22,1.22A1.21,1.21,0,0,0,714,462.13Z"/></g><g class="cls-23"><path class="cls-22" d="M389.92,379.37a1.22,1.22,0,0,0,2.43,0,1.22,1.22,0,1,0-2.43,0Z"/><path class="cls-22" d="M392.35,372.6a1.22,1.22,0,1,0-2.43,0,1.22,1.22,0,0,0,2.43,0Z"/><path class="cls-22" d="M399.1,379.37a1.22,1.22,0,0,0,2.43,0,1.22,1.22,0,1,0-2.43,0Z"/><path class="cls-22" d="M399.1,372.6a1.22,1.22,0,0,0,2.43,0,1.22,1.22,0,1,0-2.43,0Z"/><path class="cls-22" d="M408.28,379.37a1.22,1.22,0,1,0,1.22-1.22A1.21,1.21,0,0,0,408.28,379.37Z"/><path class="cls-22" d="M408.28,372.6a1.22,1.22,0,1,0,1.22-1.22A1.21,1.21,0,0,0,408.28,372.6Z"/><path class="cls-22" d="M417.46,379.37a1.22,1.22,0,1,0,1.22-1.22A1.22,1.22,0,0,0,417.46,379.37Z"/><path class="cls-22" d="M417.46,372.6a1.22,1.22,0,1,0,1.22-1.22A1.22,1.22,0,0,0,417.46,372.6Z"/><path class="cls-22" d="M426.64,379.37a1.22,1.22,0,1,0,1.22-1.22A1.22,1.22,0,0,0,426.64,379.37Z"/><path class="cls-22" d="M426.64,372.6a1.22,1.22,0,1,0,1.22-1.22A1.22,1.22,0,0,0,426.64,372.6Z"/><path class="cls-22" d="M435.83,379.37a1.22,1.22,0,0,0,2.43,0,1.22,1.22,0,1,0-2.43,0Z"/><path class="cls-22" d="M435.83,372.6a1.22,1.22,0,0,0,2.43,0,1.22,1.22,0,1,0-2.43,0Z"/><path class="cls-22" d="M445,379.37a1.22,1.22,0,1,0,1.21-1.22A1.21,1.21,0,0,0,445,379.37Z"/><path class="cls-22" d="M445,372.6a1.22,1.22,0,1,0,1.21-1.22A1.21,1.21,0,0,0,445,372.6Z"/><path class="cls-22" d="M454.19,379.37a1.22,1.22,0,1,0,1.22-1.22A1.21,1.21,0,0,0,454.19,379.37Z"/><path class="cls-22" d="M454.19,372.6a1.22,1.22,0,1,0,1.22-1.22A1.21,1.21,0,0,0,454.19,372.6Z"/></g><g class="cls-23"><path class="cls-22" d="M290.8,127.4a1.22,1.22,0,1,0,1.21-1.21A1.22,1.22,0,0,0,290.8,127.4Z"/><path class="cls-22" d="M293.23,120.63a1.22,1.22,0,1,0-1.22,1.22A1.22,1.22,0,0,0,293.23,120.63Z"/><path class="cls-22" d="M300,127.4a1.22,1.22,0,1,0,1.21-1.21A1.22,1.22,0,0,0,300,127.4Z"/><path class="cls-22" d="M300,120.63a1.22,1.22,0,1,0,1.21-1.21A1.22,1.22,0,0,0,300,120.63Z"/><path class="cls-22" d="M309.16,127.4a1.22,1.22,0,1,0,2.43,0,1.22,1.22,0,0,0-2.43,0Z"/><path class="cls-22" d="M309.16,120.63a1.22,1.22,0,1,0,2.43,0,1.22,1.22,0,0,0-2.43,0Z"/><path class="cls-22" d="M318.34,127.4a1.22,1.22,0,1,0,2.43,0,1.22,1.22,0,0,0-2.43,0Z"/><path class="cls-22" d="M318.34,120.63a1.22,1.22,0,1,0,2.43,0,1.22,1.22,0,0,0-2.43,0Z"/><path class="cls-22" d="M327.53,127.4a1.22,1.22,0,1,0,1.21-1.21A1.22,1.22,0,0,0,327.53,127.4Z"/><path class="cls-22" d="M327.53,120.63a1.22,1.22,0,1,0,1.21-1.21A1.22,1.22,0,0,0,327.53,120.63Z"/><path class="cls-22" d="M336.71,127.4a1.22,1.22,0,1,0,1.21-1.21A1.22,1.22,0,0,0,336.71,127.4Z"/><path class="cls-22" d="M336.71,120.63a1.22,1.22,0,1,0,1.21-1.21A1.22,1.22,0,0,0,336.71,120.63Z"/><path class="cls-22" d="M345.89,127.4a1.22,1.22,0,1,0,1.21-1.21A1.22,1.22,0,0,0,345.89,127.4Z"/><path class="cls-22" d="M345.89,120.63a1.22,1.22,0,1,0,1.21-1.21A1.22,1.22,0,0,0,345.89,120.63Z"/><path class="cls-22" d="M355.07,127.4a1.22,1.22,0,1,0,2.43,0,1.22,1.22,0,0,0-2.43,0Z"/><path class="cls-22" d="M355.07,120.63a1.22,1.22,0,1,0,2.43,0,1.22,1.22,0,0,0-2.43,0Z"/></g><polygon class="cls-22" points="112.95 369.51 112.95 368.75 111.08 368.75 111.08 366.88 110.32 366.88 110.32 368.75 108.45 368.75 108.45 369.51 110.32 369.51 110.32 371.38 111.08 371.38 111.08 369.51 112.95 369.51"/><polygon class="cls-22" points="127.54 369.51 127.54 368.75 125.67 368.75 125.67 366.88 124.91 366.88 124.91 368.75 123.04 368.75 123.04 369.51 124.91 369.51 124.91 371.38 125.67 371.38 125.67 369.51 127.54 369.51"/><polygon class="cls-22" points="140.26 369.51 142.13 369.51 142.13 368.75 140.26 368.75 140.26 366.88 139.5 366.88 139.5 368.75 137.63 368.75 137.63 369.51 139.5 369.51 139.5 371.38 140.26 371.38 140.26 369.51"/><polygon class="cls-22" points="613.57 76.07 613.57 75.31 611.7 75.31 611.7 73.44 610.94 73.44 610.94 75.31 609.07 75.31 609.07 76.07 610.94 76.07 610.94 77.94 611.7 77.94 611.7 76.07 613.57 76.07"/><polygon class="cls-22" points="628.15 76.07 628.15 75.31 626.29 75.31 626.29 73.44 625.52 73.44 625.52 75.31 623.66 75.31 623.66 76.07 625.52 76.07 625.52 77.94 626.29 77.94 626.29 76.07 628.15 76.07"/><polygon class="cls-22" points="640.87 76.07 642.74 76.07 642.74 75.31 640.87 75.31 640.87 73.44 640.11 73.44 640.11 75.31 638.25 75.31 638.25 76.07 640.11 76.07 640.11 77.94 640.87 77.94 640.87 76.07"/><path class="cls-19" d="M535,581.82h0a2.91,2.91,0,0,1,0-4.12L654.55,458.18a2.92,2.92,0,0,1,4.13,0h0a2.93,2.93,0,0,1,0,4.12L539.15,581.82A2.91,2.91,0,0,1,535,581.82Z"/><path class="cls-19" d="M100.23,56.76h0a2.93,2.93,0,0,1,0-4.12L219.76-66.89a2.91,2.91,0,0,1,4.12,0h0a2.91,2.91,0,0,1,0,4.12L104.36,56.76A2.92,2.92,0,0,1,100.23,56.76Z"/><path class="cls-24" d="M293.23,417.44C196.44,442.45,202.1,289.21,0,339.28V500H468C457.63,461.68,420.66,384.5,293.23,417.44Z"/></g></g></g></svg>